<svg id="Layer_1" data-name="Layer 1" xmlns="http://www.w3.org/2000/svg" viewBox="0 0 128.26 129.42"><defs><style>.cls-1{fill:#f6c3ac;}.cls-2{fill:#e6b09c;}.cls-3{fill:#3c3c3c;}.cls-4{fill:#f267a4;}.cls-5{fill:#ca7bbb;}.cls-6{fill:#3566ac;}.cls-7{fill:#f31d54;}.cls-8{fill:#f7eb19;}.cls-9{fill:#eeeded;}</style></defs><title>converse</title><g id="chat"><path id="Path_79" data-name="Path 79" class="cls-1" d="M104.37,14.73C86.89,14.73,72.72,24,72.72,41.8A31.65,31.65,0,0,0,136,43q0-.62,0-1.24C136,24,121.84,14.73,104.37,14.73Z" transform="translate(-7.76 -7.28)"/><path id="Path_80" data-name="Path 80" class="cls-2" d="M79,41.8A32,32,0,0,1,107.49,9.68a31.12,31.12,0,0,0-3.12-.15A32,32,0,0,0,72.72,41.81a32,32,0,0,0,31.65,32.27q1.58,0,3.12-.15A32,32,0,0,1,79,41.8Z" transform="translate(-7.76 -7.28)"/><path id="Path_81" data-name="Path 81" class="cls-3" d="M121.24,48.57a2,2,0,0,1-2-2h0V43.33a2,2,0,1,1,3.91,0v3.28a2,2,0,0,1-1.95,2Z" transform="translate(-7.76 -7.28)"/><path id="Path_82" data-name="Path 82" class="cls-4" d="M123.47,53.39H119a2,2,0,1,1,0-3.91h4.47a2,2,0,1,1,0,3.91Z" transform="translate(-7.76 -7.28)"/><path id="Path_83" data-name="Path 83" class="cls-3" d="M87.5,48.57a2,2,0,0,1-2-2h0V43.33a2,2,0,0,1,3.91,0v3.28a2,2,0,0,1-1.95,2Z" transform="translate(-7.76 -7.28)"/><path id="Path_84" data-name="Path 84" class="cls-4" d="M89.73,53.39H85.26a2,2,0,0,1,0-3.91h4.47a2,2,0,0,1,0,3.91Z" transform="translate(-7.76 -7.28)"/><path id="Path_85" data-name="Path 85" class="cls-3" d="M104.37,53.2a5.94,5.94,0,0,1-4.49-2,2,2,0,1,1,2.94-2.58h0a2.12,2.12,0,0,0,3,.1l.1-.1a2,2,0,1,1,2.94,2.58h0A5.94,5.94,0,0,1,104.37,53.2Z" transform="translate(-7.76 -7.28)"/><path id="Path_86" data-name="Path 86" class="cls-5" d="M134.5,31.91C132.32,5.46,121.66,9.52,104.37,9.52c-13.07,0-19.35-1.31-22-2.14a2.29,2.29,0,0,0-2.73,1.15c-2.13,4.19-6.9,15.52-6.9,33.27,0,0,7.58-13.64,31.65-13.64C115.57,28.17,114.63,31.91,134.5,31.91Z" transform="translate(-7.76 -7.28)"/><path id="Path_87" data-name="Path 87" class="cls-6" d="M85.87,8.53A2.18,2.18,0,0,1,86,8.25a31.55,31.55,0,0,1-3.69-.87,2.29,2.29,0,0,0-2.73,1.15c-2.13,4.19-6.9,15.52-6.9,33.27a22.94,22.94,0,0,1,6.48-6.59A70.18,70.18,0,0,1,85.86,8.53Z" transform="translate(-7.76 -7.28)"/><path id="Path_88" data-name="Path 88" class="cls-7" d="M7.78,103.17V124a10.17,10.17,0,0,0,9,10.11l15,1.67Z" transform="translate(-7.76 -7.28)"/><path id="Path_89" data-name="Path 89" class="cls-4" d="M71,103.17V124a10.17,10.17,0,0,1-9,10.11l-15,1.67Z" transform="translate(-7.76 -7.28)"/><path id="Path_90" data-name="Path 90" class="cls-1" d="M71,103.17h0L38.7,78.74,7.78,103.18h0c0,.42,0,.83,0,1.25A32,32,0,0,0,39.41,136.7a32,32,0,0,0,31.65-32.27Q71.05,103.79,71,103.17Z" transform="translate(-7.76 -7.28)"/><path id="Path_91" data-name="Path 91" class="cls-2" d="M13,102.14a32.9,32.9,0,0,1-5.23,1h0c0,.42,0,.83,0,1.25A32,32,0,0,0,39.41,136.7c.91,0,1.8,0,2.68-.12C26.37,135.14,13.89,120.43,13,102.14Z" transform="translate(-7.76 -7.28)"/><path id="Path_92" data-name="Path 92" class="cls-3" d="M22.53,111.19a2,2,0,0,1-2-2h0V106a2,2,0,1,1,3.91,0h0v3.28a2,2,0,0,1-2,2Z" transform="translate(-7.76 -7.28)"/><path id="Path_93" data-name="Path 93" class="cls-4" d="M24.77,116H20.3a2,2,0,1,1,0-3.91h4.47a2,2,0,1,1,0,3.91Z" transform="translate(-7.76 -7.28)"/><path id="Path_94" data-name="Path 94" class="cls-3" d="M56.27,111.19a2,2,0,0,1-2-2h0V106a2,2,0,1,1,3.91,0v3.28a2,2,0,0,1-2,2Z" transform="translate(-7.76 -7.28)"/><path id="Path_95" data-name="Path 95" class="cls-4" d="M58.51,116H54a2,2,0,1,1,0-3.91h4.47a2,2,0,1,1,0,3.91Z" transform="translate(-7.76 -7.28)"/><path id="Path_96" data-name="Path 96" class="cls-3" d="M39.4,115.82a5.94,5.94,0,0,1-4.49-2,2,2,0,0,1,2.94-2.58h0a2.12,2.12,0,0,0,3,.1l.1-.1a2,2,0,0,1,2.94,2.58h0A6,6,0,0,1,39.4,115.82Z" transform="translate(-7.76 -7.28)"/><path id="Path_97" data-name="Path 97" class="cls-4" d="M7.78,103.17h0c17-1.88,31.62-18.28,31.62-18.28S54,101.3,71,103.18h0a31.93,31.93,0,0,0-31.62-31A31.94,31.94,0,0,0,7.78,103.17Z" transform="translate(-7.76 -7.28)"/><path id="Path_98" data-name="Path 98" class="cls-7" d="M42.14,72.27c-.9-.08-1.82-.12-2.74-.12a31.94,31.94,0,0,0-31.62,31h0a29.56,29.56,0,0,0,5.23-1A32.34,32.34,0,0,1,42.14,72.27Z" transform="translate(-7.76 -7.28)"/><path id="Path_99" data-name="Path 99" class="cls-8" d="M59,51.27V31.76A12.62,12.62,0,0,0,46.39,19.14h-26A12.62,12.62,0,0,0,7.76,31.76V49.59A12.62,12.62,0,0,0,20.38,62.21H65Z" transform="translate(-7.76 -7.28)"/><g id="Group_11" data-name="Group 11"><path id="Path_100" data-name="Path 100" class="cls-3" d="M47,33.71H19.76a2,2,0,0,1,0-3.91H47a2,2,0,0,1,0,3.91Z" transform="translate(-7.76 -7.28)"/><path id="Path_101" data-name="Path 101" class="cls-3" d="M47,42.63H19.76a2,2,0,0,1,0-3.91H47a2,2,0,0,1,0,3.91Z" transform="translate(-7.76 -7.28)"/><path id="Path_102" data-name="Path 102" class="cls-3" d="M36.75,51.54h-17a2,2,0,0,1,0-3.91h17a2,2,0,0,1,0,3.91Z" transform="translate(-7.76 -7.28)"/></g><path id="Path_103" data-name="Path 103" class="cls-6" d="M84.77,115V95.51A12.62,12.62,0,0,1,97.39,82.89h26A12.62,12.62,0,0,1,136,95.51v17.83A12.62,12.62,0,0,1,123.4,126H78.72Z" transform="translate(-7.76 -7.28)"/><path id="Path_104" data-name="Path 104" class="cls-9" d="M124,97.46H96.77a2,2,0,0,1,0-3.91H124a2,2,0,1,1,0,3.91Z" transform="translate(-7.76 -7.28)"/><path id="Path_105" data-name="Path 105" class="cls-9" d="M124,106.38H96.77a2,2,0,1,1,0-3.91H124a2,2,0,1,1,0,3.91Z" transform="translate(-7.76 -7.28)"/><path id="Path_106" data-name="Path 106" class="cls-9" d="M124,115.29H107a2,2,0,1,1,0-3.91h17a2,2,0,1,1,0,3.91h0Z" transform="translate(-7.76 -7.28)"/></g></svg>