<svg id="Layer_1" data-name="Layer 1" xmlns="http://www.w3.org/2000/svg" viewBox="0 0 110.49 139.21"><defs><style>.cls-1{fill:#f8b60e;}.cls-2{fill:#fff;}</style></defs><title>play</title><g id="Symbol_2_3" data-name="Symbol 2 3"><path id="Path_4" data-name="Path 4" class="cls-1" d="M20.27,23.28v95.16a22,22,0,0,0,35.15,17.68L121.2,87.27a20.45,20.45,0,0,0,0-32.83L55.42,5.6A22,22,0,0,0,20.27,23.28Z" transform="translate(-18.97 -1.26)"/><path id="Path_5" data-name="Path 5" class="cls-2" d="M44.21,118.45V23.28a21.69,21.69,0,0,1,9.4-18A22,22,0,0,0,19,23.28v95.17a22,22,0,0,0,34.64,18A21.68,21.68,0,0,1,44.21,118.45Z" transform="translate(-18.97 -1.26)"/></g></svg>