<svg id="Layer_1" data-name="Layer 1" xmlns="http://www.w3.org/2000/svg" viewBox="0 0 134.1 134.1"><defs><style>.cls-1{fill:#16a5c1;stroke:#1aa8c4;stroke-width:2.74px;}</style></defs><title>plus</title><path id="Path_146" data-name="Path 146" class="cls-1" d="M122.36,56.27H93a7.16,7.16,0,0,1-7.15-7.16V19.77a14.6,14.6,0,0,0-29.19,0V49.12a7.16,7.16,0,0,1-7.16,7.16H20.19a14.59,14.59,0,1,0,0,29.19H49.53a7.16,7.16,0,0,1,7.16,7.16V122a14.6,14.6,0,1,0,29.19,0V92.6A7.16,7.16,0,0,1,93,85.45h29.34a14.59,14.59,0,0,0,0-29.19Z" transform="translate(-4.21 -3.81)"/></svg>