<svg id="Layer_1" data-name="Layer 1" xmlns="http://www.w3.org/2000/svg" viewBox="0 0 110.45 139.25"><defs><style>.cls-1{fill:#f9eb0f;}.cls-2{fill:#f8b60e;}</style></defs><title>run</title><path id="Path_4" data-name="Path 4" class="cls-1" d="M1.3,22v95.16a22,22,0,0,0,35.15,17.68L102.23,86a20.45,20.45,0,0,0,0-32.83L36.45,4.34A22,22,0,0,0,1.3,22Z" transform="translate(-0.03 0.02)"/><path id="Path_5" data-name="Path 5" class="cls-2" d="M25.24,117.19V22a21.69,21.69,0,0,1,9.4-18A22,22,0,0,0,0,22v95.17a22,22,0,0,0,34.64,18A21.68,21.68,0,0,1,25.24,117.19Z" transform="translate(-0.03 0.02)"/></svg>