<?xml version="1.0" encoding="utf-8"?>
<!-- Generator: Adobe Illustrator 21.1.0, SVG Export Plug-In . SVG Version: 6.00 Build 0)  -->
<svg version="1.1" id="Layer_1" xmlns="http://www.w3.org/2000/svg" xmlns:xlink="http://www.w3.org/1999/xlink" x="0px" y="0px"
	 viewBox="0 0 166 126.9" style="enable-background:new 0 0 166 126.9;" xml:space="preserve">
<style type="text/css">
	.st0{fill:#1AA8C4;}
	.st1{fill:#3566AC;}
	.st2{fill:#FFFFFF;}
	.st3{fill:#F7EB19;}
	.st4{fill:#393C43;}
</style>
<title>see</title>
<g id="webcam">
	<path id="Path_63" class="st0" d="M102.5,106.5H63.5V65.7h38.9V106.5z"/>
	<path id="Path_64" class="st1" d="M63.5,86.6c7.1,0.4,13.7,0.5,19.5,0.5s12.4-0.1,19.5-0.5V65.7h-39V86.6z"/>
	<path id="Path_65" class="st2" d="M53.4,126.9h59.2c3.7,0,6.7-3,6.7-6.7c0-0.6-0.1-1.1-0.2-1.7l-1.3-4.9c-1.1-4.2-4.9-7.2-9.3-7.2
		H57.5c-4.4,0-8.2,3-9.3,7.2l-1.3,4.9c-0.9,3.6,1.2,7.2,4.8,8.1C52.3,126.8,52.8,126.9,53.4,126.9z"/>
	<path id="Path_66" class="st0" d="M166,55c0,4.9-3.2,9.3-7.9,10.8C131,74.4,102.5,75.9,83,75.9S35,74.4,7.9,65.7
		C3.2,64.2,0.1,59.9,0,55V21c0-4.9,3.2-9.3,7.9-10.8C35,1.5,63.4,0,83,0s48,1.5,75.1,10.2c4.7,1.5,7.9,5.9,7.9,10.8L166,55z"/>
	<path id="Path_67" class="st3" d="M7.9,10.1C3.2,11.7,0.1,16,0,21v34c0,4.9,3.2,9.3,7.9,10.8c22.2,7.1,45.5,9.4,63.8,10
		C54,58.8,49.1,31.5,55.9,1.1C39.6,2.3,23.5,5.3,7.9,10.1L7.9,10.1z"/>
	<path id="Path_68" class="st2" d="M87.5,0c16.4,0.1,32.7,1.7,48.9,4.6c18.4,15.4,20.8,42.7,5.5,61.1c-1.7,2-3.5,3.8-5.5,5.5
		c-16.1,3-32.5,4.5-48.9,4.6c-20.9-11.6-28.5-38-16.9-59C74.6,9.8,80.5,4,87.5,0L87.5,0z"/>
	
		<ellipse id="Ellipse_4" transform="matrix(0.7071 -0.7071 0.7071 0.7071 4.9634 87.9099)" class="st1" cx="108.6" cy="38" rx="35.1" ry="35.1"/>
	
		<ellipse id="Ellipse_5" transform="matrix(0.23 -0.9732 0.9732 0.23 46.6526 134.9659)" class="st4" cx="108.6" cy="38" rx="13.5" ry="13.5"/>
	
		<ellipse id="Ellipse_6" transform="matrix(0.23 -0.9732 0.9732 0.23 48.8363 116.2676)" class="st2" cx="97.9" cy="27.3" rx="7.2" ry="7.2"/>
	<path id="Path_69" class="st2" d="M20.5,30.3h24.1c2.9,0,5.2,2.3,5.2,5.2l0,0v4.8c0,2.9-2.3,5.2-5.2,5.2H20.5
		c-2.9,0-5.2-2.3-5.3-5.1c0,0,0,0,0-0.1l0,0v-4.8C15.3,32.7,17.6,30.3,20.5,30.3C20.5,30.3,20.5,30.3,20.5,30.3z"/>
	<path id="Path_70" class="st1" d="M80.3,106.5H57.5c-4.4,0-8.2,3-9.3,7.2l-1.3,4.9c-0.9,3.6,1.2,7.2,4.8,8.1c0.5,0.1,1,0.2,1.6,0.2
		h31.2C79.3,122.8,77.5,113.3,80.3,106.5z"/>
</g>
</svg>
