<svg id="Layer_1" data-name="Layer 1" xmlns="http://www.w3.org/2000/svg" viewBox="0 0 117.1 127.35"><defs><style>.cls-1{fill:#1aa8c4;}.cls-2{fill:#454545;}.cls-3{fill:#3566ac;}.cls-4{fill:#f7eb19;}</style></defs><title>sing</title><g id="music-notes"><path id="Path_71" data-name="Path 71" class="cls-1" d="M120.62,7.39l-71.44,18a6.41,6.41,0,0,0-4.84,6.21V94.64A21.55,21.55,0,1,0,54.59,113V62.48l63.75-16v27A21.55,21.55,0,1,0,128.59,91.8V13.6a6.41,6.41,0,0,0-8-6.21Z" transform="translate(-11.49 -7.19)"/><path id="Path_72" data-name="Path 72" class="cls-2" d="M87,42.07a4.4,4.4,0,0,1-5.18-3.46h0l-.5-2.49a.77.77,0,0,1,.6-.89L89,33.8a.77.77,0,0,1,.89.6l.5,2.49A4.41,4.41,0,0,1,87,42.07Z" transform="translate(-11.49 -7.19)"/><path id="Path_73" data-name="Path 73" class="cls-3" d="M95.74,91.82a21.55,21.55,0,0,1,16.42-21,21.55,21.55,0,1,0,0,41.86A21.55,21.55,0,0,1,95.74,91.82Z" transform="translate(-11.49 -7.19)"/><path id="Path_74" data-name="Path 74" class="cls-3" d="M21.74,113a21.55,21.55,0,0,1,16.42-21,21.55,21.55,0,1,0,0,41.86A21.55,21.55,0,0,1,21.74,113Z" transform="translate(-11.49 -7.19)"/><path id="Path_75" data-name="Path 75" class="cls-2" d="M101.49,33.39a1.87,1.87,0,0,1-1.83-1.5L99.1,29a1.87,1.87,0,1,1,3.66-.73h0l.57,2.85a1.87,1.87,0,0,1-1.83,2.23Z" transform="translate(-11.49 -7.19)"/><path id="Path_76" data-name="Path 76" class="cls-2" d="M69.49,39.77a1.87,1.87,0,0,1-1.83-1.5l-.57-2.85a1.87,1.87,0,0,1,3.66-.73l.57,2.85a1.87,1.87,0,0,1-1.47,2.19h0A1.89,1.89,0,0,1,69.49,39.77Z" transform="translate(-11.49 -7.19)"/><g id="Group_10" data-name="Group 10"><path id="Path_77" data-name="Path 77" class="cls-4" d="M101.15,39.07a1.87,1.87,0,0,1-.36-3.69l2.85-.57a1.87,1.87,0,1,1,.73,3.66l-2.85.57A1.89,1.89,0,0,1,101.15,39.07Z" transform="translate(-11.49 -7.19)"/><path id="Path_78" data-name="Path 78" class="cls-4" d="M69.14,45.44a1.87,1.87,0,0,1-.36-3.69l2.85-.57a1.87,1.87,0,0,1,.73,3.66l-2.85.57A1.88,1.88,0,0,1,69.14,45.44Z" transform="translate(-11.49 -7.19)"/></g></g></svg>