<svg id="Layer_1" data-name="Layer 1" xmlns="http://www.w3.org/2000/svg" viewBox="0 0 128.69 128.68"><defs><style>.cls-1{fill:#1aa8c4;}.cls-2{fill:#3566ac;}.cls-3{fill:#454545;}.cls-4{fill:#f31d54;}.cls-5{fill:#f267a4;}</style></defs><title>talk</title><g id="microphone"><path id="Path_39" data-name="Path 39" class="cls-1" d="M82.79,122.81H59.42a1.26,1.26,0,0,0-1.26,1.25h0V134.5a1.26,1.26,0,0,0,1.25,1.26H82.79a1.26,1.26,0,0,0,1.26-1.26h0V124.07a1.26,1.26,0,0,0-1.26-1.26Z" transform="translate(-6.76 -7.08)"/><path id="Path_40" data-name="Path 40" class="cls-2" d="M58.16,124.07V134.5a1.26,1.26,0,0,0,1.26,1.26H71.1V124.07a1.26,1.26,0,0,0-1.26-1.26H59.42a1.26,1.26,0,0,0-1.26,1.26Z" transform="translate(-6.76 -7.08)"/><path id="Path_41" data-name="Path 41" class="cls-2" d="M130.27,74.4H11.94a5.18,5.18,0,1,1,0-10.36H130.27a5.18,5.18,0,1,1,0,10.36Z" transform="translate(-6.76 -7.08)"/><path id="Path_42" data-name="Path 42" class="cls-1" d="M122.5,51.1a5.25,5.25,0,0,0-5,5.3V89.74A28.48,28.48,0,0,1,89,118.22H53.18A28.48,28.48,0,0,1,24.7,89.74V56.4a5.25,5.25,0,0,0-5-5.3,5.18,5.18,0,0,0-5.36,5q0,.1,0,.19V89.74a38.84,38.84,0,0,0,38.84,38.83H89a38.84,38.84,0,0,0,38.84-38.83V56.27a5.18,5.18,0,0,0-5.18-5.18Z" transform="translate(-6.76 -7.08)"/><path id="Path_43" data-name="Path 43" class="cls-1" d="M84,110.64H58.16A25.89,25.89,0,0,1,32.27,84.75V33A25.89,25.89,0,0,1,58.16,7.08H84A25.89,25.89,0,0,1,109.94,33h0V84.75A25.89,25.89,0,0,1,84,110.64Z" transform="translate(-6.76 -7.08)"/><path id="Path_44" data-name="Path 44" class="cls-3" d="M71.1,53.76a4.45,4.45,0,0,1-4.45-4.45V46.75a.77.77,0,0,1,.77-.77h7.37a.77.77,0,0,1,.77.77h0v2.57A4.45,4.45,0,0,1,71.1,53.76Z" transform="translate(-6.76 -7.08)"/><g id="Group_9" data-name="Group 9"><path id="Path_45" data-name="Path 45" class="cls-2" d="M42.62,84.75V33A25.89,25.89,0,0,1,68.51,7.08H58.15A25.89,25.89,0,0,0,32.26,33V84.75a25.89,25.89,0,0,0,25.89,25.89H68.51A25.89,25.89,0,0,1,42.62,84.75Z" transform="translate(-6.76 -7.08)"/><path id="Path_46" data-name="Path 46" class="cls-2" d="M63.34,27.79A5.18,5.18,0,0,1,58.16,33H32.27a25.76,25.76,0,0,1,2.16-10.36H58.16a5.18,5.18,0,0,1,5.18,5.18Z" transform="translate(-6.76 -7.08)"/><path id="Path_47" data-name="Path 47" class="cls-2" d="M47.8,48.5a5.18,5.18,0,0,1-5.18,5.18H32.26V43.32H42.62A5.18,5.18,0,0,1,47.8,48.5Z" transform="translate(-6.76 -7.08)"/><path id="Path_48" data-name="Path 48" class="cls-2" d="M63.34,69.22a5.18,5.18,0,0,1-5.18,5.18H32.27V64H58.16a5.18,5.18,0,0,1,5.18,5.18Z" transform="translate(-6.76 -7.08)"/><path id="Path_49" data-name="Path 49" class="cls-2" d="M63.34,89.93a5.18,5.18,0,0,1-5.18,5.18H34.42a25.77,25.77,0,0,1-2.16-10.36H58.16a5.18,5.18,0,0,1,5.18,5.18Z" transform="translate(-6.76 -7.08)"/><path id="Path_50" data-name="Path 50" class="cls-2" d="M109.94,33H84A5.18,5.18,0,0,1,84,22.6h23.73A25.77,25.77,0,0,1,109.94,33Z" transform="translate(-6.76 -7.08)"/><path id="Path_51" data-name="Path 51" class="cls-2" d="M109.94,43.33V53.69H99.58a5.18,5.18,0,0,1,0-10.36Z" transform="translate(-6.76 -7.08)"/><path id="Path_52" data-name="Path 52" class="cls-2" d="M109.94,64V74.4H84A5.18,5.18,0,0,1,84,64Z" transform="translate(-6.76 -7.08)"/><path id="Path_53" data-name="Path 53" class="cls-2" d="M109.94,84.75a25.77,25.77,0,0,1-2.16,10.36H84a5.18,5.18,0,0,1,0-10.36Z" transform="translate(-6.76 -7.08)"/></g><path id="Path_54" data-name="Path 54" class="cls-4" d="M32.27,43.33H42.63V53.69H32.27Z" transform="translate(-6.76 -7.08)"/><path id="Path_55" data-name="Path 55" class="cls-4" d="M44.78,22.62H34.42A25.76,25.76,0,0,0,32.26,33H42.62A25.79,25.79,0,0,1,44.78,22.62Z" transform="translate(-6.76 -7.08)"/><path id="Path_56" data-name="Path 56" class="cls-4" d="M42.62,84.75H32.26a25.77,25.77,0,0,0,2.16,10.36H44.78A25.8,25.8,0,0,1,42.62,84.75Z" transform="translate(-6.76 -7.08)"/><path id="Path_57" data-name="Path 57" class="cls-4" d="M32.27,64H42.63V74.4H32.27Z" transform="translate(-6.76 -7.08)"/><path id="Path_58" data-name="Path 58" class="cls-2" d="M52,123.39H90.23A32.27,32.27,0,0,0,122.5,91.12h0v-40a5.25,5.25,0,0,0-5,5.3V89.73A28.48,28.48,0,0,1,89,118.21H53.18A28.48,28.48,0,0,1,24.69,89.74V56.4a5.25,5.25,0,0,0-5-5.3v40A32.27,32.27,0,0,0,52,123.39Z" transform="translate(-6.76 -7.08)"/><path id="Path_59" data-name="Path 59" class="cls-3" d="M87.59,48.07a1.89,1.89,0,0,1-1.89-1.89h0V43.24a1.89,1.89,0,0,1,3.77,0v2.94A1.89,1.89,0,0,1,87.59,48.07Z" transform="translate(-6.76 -7.08)"/><path id="Path_60" data-name="Path 60" class="cls-3" d="M54.61,48.07a1.89,1.89,0,0,1-1.89-1.89h0V43.24a1.89,1.89,0,0,1,3.77,0v2.94A1.89,1.89,0,0,1,54.61,48.07Z" transform="translate(-6.76 -7.08)"/><path id="Path_61" data-name="Path 61" class="cls-5" d="M89.06,53.63H86.12a1.89,1.89,0,0,1,0-3.77h2.94a1.89,1.89,0,0,1,0,3.77Z" transform="translate(-6.76 -7.08)"/><path id="Path_62" data-name="Path 62" class="cls-5" d="M56.08,53.63H53.14a1.89,1.89,0,0,1,0-3.77h2.94a1.89,1.89,0,0,1,0,3.77Z" transform="translate(-6.76 -7.08)"/></g></svg>