<svg id="Layer_1" data-name="Layer 1" xmlns="http://www.w3.org/2000/svg" viewBox="0 0 69.49 91.07"><defs><style>.cls-1{fill:#f6c3ac;}.cls-2{fill:#e6b09c;}</style></defs><title>wave</title><g id="hand"><path id="Path_107" data-name="Path 107" class="cls-1" d="M33.38,59.57,20.12,61.22,15.85,26.79A6.68,6.68,0,0,1,29.1,25.07v.08Z" transform="translate(-6.18 -9.96)"/><path id="Path_108" data-name="Path 108" class="cls-1" d="M46.63,57.93,33.38,59.58,28.14,17.35A6.68,6.68,0,0,1,41.39,15.7Z" transform="translate(-6.18 -9.96)"/><path id="Path_109" data-name="Path 109" class="cls-1" d="M58.55,58.54l-13.21-1.9L50.28,22.3a6.68,6.68,0,0,1,13.21,1.9Z" transform="translate(-6.18 -9.96)"/><path id="Path_110" data-name="Path 110" class="cls-1" d="M71.77,60.4,58.56,58.5l3.88-27a6.68,6.68,0,0,1,13.21,1.9Z" transform="translate(-6.18 -9.96)"/><path id="Path_111" data-name="Path 111" class="cls-1" d="M46,101A27,27,0,0,1,19,74V52.12H72.95V74a27,27,0,0,1-27,27Z" transform="translate(-6.18 -9.96)"/><path id="Path_112" data-name="Path 112" class="cls-2" d="M46.65,101s-23.76,2-32.89-23.63L6.59,60.86a4.78,4.78,0,0,1,5.56-6.55c4.36,1.12,9.63,4.7,13.57,14.27A7.23,7.23,0,0,0,31.36,73c4.11.6,10.2,2.29,13.28,7C49.53,87.51,46.65,101,46.65,101Z" transform="translate(-6.18 -9.96)"/></g></svg>