<svg id="Layer_1" data-name="Layer 1" xmlns="http://www.w3.org/2000/svg" viewBox="0 0 56.4 84.9"><defs><style>.cls-1{fill:#1aa8c4;}.cls-2{fill:#127b89;}.cls-3{fill:none;stroke:#127b89;stroke-miterlimit:10;opacity:0;}</style></defs><title>down</title><path id="Rectangle_29" data-name="Rectangle 29" class="cls-1" d="M14.6,47.1H40.8A14.62,14.62,0,0,1,55.4,61.7v7.5A14.62,14.62,0,0,1,40.8,83.8H14.6A14.62,14.62,0,0,1,0,69.2V61.7A14.49,14.49,0,0,1,14.38,47.1Z" transform="translate(0.5 0.5)"/><path id="Rectangle_29-2" data-name="Rectangle 29" class="cls-2" d="M29.21,47.2H46c5.17,0,9.36,6.54,9.37,14.6v7.5c0,8.06-4.2,14.59-9.37,14.6H29.21c-5.17,0-9.36-6.54-9.37-14.6V61.8c0-8,4.09-14.54,9.23-14.6Z" transform="translate(0.5 0.5)"/><rect class="cls-3" x="0.5" y="0.5" width="55.4" height="83.9"/></svg>