<svg id="Layer_1" data-name="Layer 1" xmlns="http://www.w3.org/2000/svg" viewBox="0 0 55.4 83.9"><defs><style>.cls-1{fill:#1aa8c4;}</style></defs><title>up</title><path id="Rectangle_28" data-name="Rectangle 28" class="cls-1" d="M33.2,97.6H44.4a11,11,0,0,1,11,11v61.9a11,11,0,0,1-11,11H33.2a11,11,0,0,1-11-11V108.6A11.1,11.1,0,0,1,33.2,97.6Z" transform="translate(0 -97.6)"/><path id="Rectangle_29" data-name="Rectangle 29" class="cls-1" d="M14.6,144.7H40.8a14.62,14.62,0,0,1,14.6,14.6v7.5a14.62,14.62,0,0,1-14.6,14.6H14.6A14.62,14.62,0,0,1,0,166.8v-7.5A14.49,14.49,0,0,1,14.6,144.7Z" transform="translate(0 -97.6)"/></svg>