<svg id="Capa_1" enable-background="new 0 0 512 512" height="512" viewBox="0 0 512 512" width="512" xmlns="http://www.w3.org/2000/svg"><path d="m476.516 117.995c-31.398-30.87-75.443-41.14-115.269-30.831-39.084 10.117-79.976 9.815-119.467 1.427-64.035-13.601-133.448 4.464-183.188 54.204-78.29 78.29-78.123 205.327.501 283.409 78.449 77.908 205.764 76.145 283.943-2.035l132.904-132.904c47.493-47.492 48.469-126.182.576-173.27zm-73.358 173.553c-20.307 20.308-53.233 20.308-73.541 0-20.307-20.308-20.307-53.233 0-73.54 20.308-20.308 53.233-20.308 73.541 0s20.307 53.232 0 73.54z" fill="#e1b89a"/><path d="m343.037 424.168 19.303-19.302c-143.914-62.256-162.333-229.168-139.876-319.387-58.384-6.551-119.098 12.542-163.872 57.316-78.29 78.29-78.123 205.327.501 283.409 78.45 77.908 205.765 76.144 283.944-2.036z" fill="#d2996f"/><circle cx="194.413" cy="409.377" fill="#a3defe" r="30.781"/><circle cx="98.154" cy="350.2" fill="#f7ef87" r="30.781"/><circle cx="88.849" cy="244.194" fill="#fcf2d0" r="30.781"/><circle cx="168.091" cy="164.951" fill="#de5c6e" r="30.781"/><path d="m306.423 278.468c-24.138 24.138-73.569 39.941-128.504 31.503-12.637-1.941-20.247-15.151-15.501-27.022 14.067-35.183 19.925-82.808 42.801-105.684 27.947-27.947 73.257-27.947 101.203 0 27.947 27.947 27.947 73.257.001 101.203z" fill="#fcf2d0"/><path d="m224.013 227.473c-1.203 0-2.423-.29-3.556-.902-3.645-1.967-5.005-6.517-3.037-10.162 3.682-6.822 10.68-15.156 18.261-21.752 6.718-5.844 16.792-12.852 26.634-13.054 4.105-.069 7.566 3.204 7.651 7.345.085 4.142-3.203 7.567-7.345 7.652-8.76.179-26.003 15.821-32.002 26.933-1.355 2.513-3.938 3.94-6.606 3.94z" fill="#f6e3a3"/><path d="m215.285 284.712c-3.945 0-7.252-3.082-7.48-7.071-.237-4.135 2.923-7.68 7.058-7.917 13.714-.786 29.835-6.169 41.071-13.714 3.435-2.309 8.099-1.393 10.407 2.046 2.309 3.439 1.394 8.099-2.046 10.408-13.51 9.071-32.122 15.293-48.573 16.236-.147.009-.292.012-.437.012z" fill="#f6e3a3"/><path d="m447.244 40.846-4.403-4.403c-9.664-9.664-24.906-10.903-36.004-2.928l-148.588 106.773c-9.511 6.834-14.1 18.632-11.708 30.096 7 33.549 33.213 59.762 66.762 66.762 11.465 2.392 23.262-2.197 30.096-11.708l106.774-148.587c7.975-11.099 6.735-26.341-2.929-36.005z" fill="#89d47f"/><path d="m246.541 170.385c7 33.549 33.213 59.762 66.762 66.762 5.863 1.223 11.81.61 17.139-1.543-24.163-34.077-29.228-88.278-23.685-130.172l-48.508 34.857c-9.51 6.833-14.1 18.631-11.708 30.096z" fill="#5ec783"/><path d="m356.968 206.556-13.568 18.882c-6.834 9.511-18.632 14.1-30.096 11.708-33.549-7-59.762-33.213-66.762-66.762-2.392-11.465 2.197-23.262 11.708-30.096l18.883-13.569c7.53 15.017 17.578 31.259 33.078 46.758 15.499 15.5 31.74 25.549 46.757 33.079z" fill="#4e5660"/><path d="m246.542 170.385c7 33.549 33.213 59.762 66.762 66.762 5.864 1.223 11.81.61 17.139-1.543-12.658-17.852-20.073-41.226-23.47-65.465-13.68-14.479-22.849-29.477-29.841-43.419l-18.883 13.569c-9.51 6.833-14.1 18.631-11.707 30.096z" fill="#383c43"/></svg>