<svg id="Layer_1" data-name="Layer 1" xmlns="http://www.w3.org/2000/svg" xmlns:xlink="http://www.w3.org/1999/xlink" viewBox="0 0 1554.43 1000"><defs><style>.cls-1,.cls-10,.cls-13,.cls-16,.cls-7{fill:none;}.cls-2{clip-path:url(#clip-path);}.cls-3{opacity:0.27;}.cls-4{fill:#ca7cd8;}.cls-5{opacity:0.81;}.cls-6{fill:#fff;}.cls-7{stroke:#fff;}.cls-10,.cls-13,.cls-16,.cls-7{stroke-width:0.75px;}.cls-8{opacity:0.27;}.cls-9{fill:#3968cb;}.cls-10{stroke:#3968cb;}.cls-11{opacity:0.45;}.cls-12{fill:#10e7e2;}.cls-13{stroke:#10e7e2;}.cls-14{opacity:0.68;}.cls-15{fill:#f4e5f7;}.cls-16{stroke:#f4e5f7;}.cls-17{opacity:0.91;}.cls-18{fill:#b320d1;}</style><clipPath id="clip-path" transform="translate(115.8 102)"><rect class="cls-1" x="-0.5" y="0.5" width="1439.5" height="897.5"/></clipPath></defs><title>Untitled-6</title><g class="cls-2"><g id="Symbol_11_1" data-name="Symbol 11 1"><g id="Group_28" data-name="Group 28" class="cls-3"><path class="cls-4" d="M1438.63,898H-1V2H1438.63Z" transform="translate(115.8 102)"/><g id="Group_24" data-name="Group 24"><g id="Group_21" data-name="Group 21" class="cls-5"><g id="Ellipse_9" data-name="Ellipse 9"><circle class="cls-6" cx="634.88" cy="170.41" r="63.02"/><circle class="cls-7" cx="634.88" cy="170.41" r="62.65"/></g><g id="Ellipse_10" data-name="Ellipse 10"><circle class="cls-6" cx="604.68" cy="261.77" r="59.66"/><circle class="cls-7" cx="604.68" cy="261.77" r="59.29"/></g><g id="Ellipse_11" data-name="Ellipse 11"><circle class="cls-6" cx="702.75" cy="245.73" r="55.56"/><circle class="cls-7" cx="702.75" cy="245.73" r="55.19"/></g><g id="Ellipse_12" data-name="Ellipse 12"><circle class="cls-6" cx="702.75" cy="245.73" r="55.56"/><circle class="cls-7" cx="702.75" cy="245.73" r="55.19"/></g><g id="Ellipse_13" data-name="Ellipse 13"><circle class="cls-6" cx="734.07" cy="262.14" r="55.56"/><circle class="cls-7" cx="734.07" cy="262.14" r="55.19"/></g><g id="Ellipse_14" data-name="Ellipse 14"><circle class="cls-6" cx="647.56" cy="313.6" r="55.56"/><circle class="cls-7" cx="647.56" cy="313.6" r="55.19"/></g><g id="Ellipse_15" data-name="Ellipse 15"><circle class="cls-6" cx="520.78" cy="335.23" r="63.02"/><circle class="cls-7" cx="520.78" cy="335.23" r="62.65"/></g><g id="Ellipse_16" data-name="Ellipse 16"><circle class="cls-6" cx="720.28" cy="324.41" r="59.66"/><circle class="cls-7" cx="720.28" cy="324.41" r="59.29"/></g><g id="Ellipse_17" data-name="Ellipse 17"><circle class="cls-6" cx="656.51" cy="369.53" r="55.56"/><circle class="cls-7" cx="656.51" cy="369.53" r="55.19"/></g><g id="Ellipse_18" data-name="Ellipse 18"><circle class="cls-6" cx="600.58" cy="369.53" r="55.56"/><circle class="cls-7" cx="600.58" cy="369.53" r="55.19"/></g><g id="Ellipse_19" data-name="Ellipse 19"><circle class="cls-6" cx="537.93" cy="186.82" r="63.02"/><circle class="cls-7" cx="537.93" cy="186.82" r="62.65"/></g><g id="Ellipse_20" data-name="Ellipse 20"><circle class="cls-6" cx="493.56" cy="261.77" r="59.66"/><circle class="cls-7" cx="493.56" cy="261.77" r="59.29"/></g><g id="Ellipse_21" data-name="Ellipse 21"><circle class="cls-6" cx="703.5" cy="179.36" r="55.56"/><circle class="cls-7" cx="703.5" cy="179.36" r="55.19"/></g><g id="Ellipse_22" data-name="Ellipse 22"><circle class="cls-6" cx="553.6" cy="301.67" r="55.56"/><circle class="cls-7" cx="553.6" cy="301.67" r="55.19"/></g></g><g id="Group_22" data-name="Group 22" class="cls-8"><g id="Ellipse_9-2" data-name="Ellipse 9-2"><circle class="cls-9" cx="841.86" cy="626.46" r="70.86"/><circle class="cls-10" cx="841.86" cy="626.46" r="70.49"/></g><g id="Ellipse_10-2" data-name="Ellipse 10-2"><circle class="cls-9" cx="807.9" cy="729.19" r="67.09"/><circle class="cls-10" cx="807.9" cy="729.19" r="66.71"/></g><g id="Ellipse_11-2" data-name="Ellipse 11-2"><circle class="cls-9" cx="918.17" cy="711.16" r="62.47"/><circle class="cls-10" cx="918.17" cy="711.16" r="62.1"/></g><g id="Ellipse_12-2" data-name="Ellipse 12-2"><circle class="cls-9" cx="918.17" cy="711.16" r="62.47"/><circle class="cls-10" cx="918.17" cy="711.16" r="62.1"/></g><g id="Ellipse_13-2" data-name="Ellipse 13-2"><circle class="cls-9" cx="953.39" cy="729.61" r="62.47"/><circle class="cls-10" cx="953.39" cy="729.61" r="62.1"/></g><g id="Ellipse_14-2" data-name="Ellipse 14-2"><circle class="cls-9" cx="856.12" cy="787.47" r="62.47"/><circle class="cls-10" cx="856.12" cy="787.47" r="62.1"/></g><g id="Ellipse_15-2" data-name="Ellipse 15-2"><circle class="cls-9" cx="713.56" cy="811.79" r="70.86"/><circle class="cls-10" cx="713.56" cy="811.79" r="70.49"/></g><g id="Ellipse_16-2" data-name="Ellipse 16-2"><circle class="cls-9" cx="937.88" cy="799.63" r="67.09"/><circle class="cls-10" cx="937.88" cy="799.63" r="66.71"/></g><g id="Ellipse_17-2" data-name="Ellipse 17-2"><circle class="cls-9" cx="866.18" cy="850.36" r="62.47"/><circle class="cls-10" cx="866.18" cy="850.36" r="62.1"/></g><g id="Ellipse_18-2" data-name="Ellipse 18-2"><circle class="cls-9" cx="803.29" cy="850.36" r="62.47"/><circle class="cls-10" cx="803.29" cy="850.36" r="62.1"/></g><g id="Ellipse_19-2" data-name="Ellipse 19-2"><circle class="cls-9" cx="732.85" cy="644.91" r="70.86"/><circle class="cls-10" cx="732.85" cy="644.91" r="70.49"/></g><g id="Ellipse_20-2" data-name="Ellipse 20-2"><circle class="cls-9" cx="682.95" cy="729.19" r="67.09"/><circle class="cls-10" cx="682.95" cy="729.19" r="66.71"/></g><g id="Ellipse_21-2" data-name="Ellipse 21-2"><circle class="cls-9" cx="919.01" cy="636.53" r="62.47"/><circle class="cls-10" cx="919.01" cy="636.53" r="62.1"/></g><g id="Ellipse_22-2" data-name="Ellipse 22-2"><circle class="cls-9" cx="750.46" cy="774.05" r="62.47"/><circle class="cls-10" cx="750.46" cy="774.05" r="62.1"/></g></g><g id="Group_23" data-name="Group 23" class="cls-5"><g id="Ellipse_9-3" data-name="Ellipse 9-3"><circle class="cls-6" cx="1176.32" cy="483.64" r="63.02"/><circle class="cls-7" cx="1176.32" cy="483.64" r="62.65"/></g><g id="Ellipse_10-3" data-name="Ellipse 10-3"><circle class="cls-6" cx="1146.12" cy="575" r="59.66"/><circle class="cls-7" cx="1146.12" cy="575" r="59.29"/></g><g id="Ellipse_11-3" data-name="Ellipse 11-3"><circle class="cls-6" cx="1244.19" cy="558.96" r="55.56"/><circle class="cls-7" cx="1244.19" cy="558.96" r="55.19"/></g><g id="Ellipse_12-3" data-name="Ellipse 12-3"><circle class="cls-6" cx="1244.19" cy="558.96" r="55.56"/><circle class="cls-7" cx="1244.19" cy="558.96" r="55.19"/></g><g id="Ellipse_13-3" data-name="Ellipse 13-3"><circle class="cls-6" cx="1275.51" cy="575.37" r="55.56"/><circle class="cls-7" cx="1275.51" cy="575.37" r="55.19"/></g><g id="Ellipse_14-3" data-name="Ellipse 14-3"><circle class="cls-6" cx="1189" cy="626.83" r="55.56"/><circle class="cls-7" cx="1189" cy="626.83" r="55.19"/></g><g id="Ellipse_15-3" data-name="Ellipse 15-3"><circle class="cls-6" cx="1062.22" cy="648.46" r="63.02"/><circle class="cls-7" cx="1062.22" cy="648.46" r="62.65"/></g><g id="Ellipse_16-3" data-name="Ellipse 16-3"><circle class="cls-6" cx="1261.71" cy="637.64" r="59.66"/><circle class="cls-7" cx="1261.71" cy="637.64" r="59.29"/></g><g id="Ellipse_17-3" data-name="Ellipse 17-3"><circle class="cls-6" cx="1197.95" cy="682.76" r="55.56"/><circle class="cls-7" cx="1197.95" cy="682.76" r="55.19"/></g><g id="Ellipse_18-3" data-name="Ellipse 18-3"><circle class="cls-6" cx="1142.02" cy="682.76" r="55.56"/><circle class="cls-7" cx="1142.02" cy="682.76" r="55.19"/></g><g id="Ellipse_19-3" data-name="Ellipse 19-3"><circle class="cls-6" cx="1079.37" cy="500.05" r="63.02"/><circle class="cls-7" cx="1079.37" cy="500.05" r="62.65"/></g><g id="Ellipse_20-3" data-name="Ellipse 20-3"><circle class="cls-6" cx="1035" cy="575" r="59.66"/><circle class="cls-7" cx="1035" cy="575" r="59.29"/></g><g id="Ellipse_21-3" data-name="Ellipse 21-3"><circle class="cls-6" cx="1244.93" cy="492.59" r="55.56"/><circle class="cls-7" cx="1244.93" cy="492.59" r="55.19"/></g><g id="Ellipse_22-3" data-name="Ellipse 22-3"><circle class="cls-6" cx="1095.03" cy="614.9" r="55.56"/><circle class="cls-7" cx="1095.03" cy="614.9" r="55.19"/></g></g><g id="Group_20" data-name="Group 20" class="cls-11"><g id="Ellipse_9-4" data-name="Ellipse 9-4"><circle class="cls-12" cx="223.75" cy="103.59" r="45.41"/><circle class="cls-13" cx="223.75" cy="103.59" r="45.04"/></g><g id="Ellipse_10-4" data-name="Ellipse 10-4"><circle class="cls-12" cx="201.98" cy="169.42" r="43"/><circle class="cls-13" cx="201.98" cy="169.42" r="42.62"/></g><g id="Ellipse_11-4" data-name="Ellipse 11-4"><circle class="cls-12" cx="272.66" cy="157.87" r="40.04"/><circle class="cls-13" cx="272.66" cy="157.87" r="39.67"/></g><g id="Ellipse_12-4" data-name="Ellipse 12-4"><circle class="cls-12" cx="272.66" cy="157.87" r="40.04"/><circle class="cls-13" cx="272.66" cy="157.87" r="39.67"/></g><g id="Ellipse_13-4" data-name="Ellipse 13-4"><circle class="cls-12" cx="295.23" cy="169.69" r="40.04"/><circle class="cls-13" cx="295.23" cy="169.69" r="39.67"/></g><g id="Ellipse_14-4" data-name="Ellipse 14-4"><circle class="cls-12" cx="232.89" cy="206.78" r="40.04"/><circle class="cls-13" cx="232.89" cy="206.78" r="39.67"/></g><g id="Ellipse_15-4" data-name="Ellipse 15-4"><circle class="cls-12" cx="141.52" cy="222.36" r="45.41"/><circle class="cls-13" cx="141.52" cy="222.36" r="45.04"/></g><g id="Ellipse_16-4" data-name="Ellipse 16-4"><circle class="cls-12" cx="285.29" cy="214.57" r="43"/><circle class="cls-13" cx="285.29" cy="214.57" r="42.62"/></g><g id="Ellipse_17-4" data-name="Ellipse 17-4"><circle class="cls-12" cx="239.34" cy="247.08" r="40.04"/><circle class="cls-13" cx="239.34" cy="247.08" r="39.67"/></g><g id="Ellipse_18-4" data-name="Ellipse 18-4"><circle class="cls-12" cx="199.03" cy="247.08" r="40.04"/><circle class="cls-13" cx="199.03" cy="247.08" r="39.67"/></g><g id="Ellipse_19-4" data-name="Ellipse 19-4"><circle class="cls-12" cx="153.88" cy="115.41" r="45.41"/><circle class="cls-13" cx="153.88" cy="115.41" r="45.04"/></g><g id="Ellipse_20-4" data-name="Ellipse 20-4"><circle class="cls-12" cx="121.9" cy="169.42" r="43"/><circle class="cls-13" cx="121.9" cy="169.42" r="42.62"/></g><g id="Ellipse_21-4" data-name="Ellipse 21-4"><circle class="cls-12" cx="273.2" cy="110.03" r="40.04"/><circle class="cls-13" cx="273.2" cy="110.03" r="39.67"/></g><g id="Ellipse_22-4" data-name="Ellipse 22-4"><circle class="cls-12" cx="165.17" cy="198.18" r="40.04"/><circle class="cls-13" cx="165.17" cy="198.18" r="39.67"/></g></g><g id="Group_16" data-name="Group 16" class="cls-14"><g id="Ellipse_9-6" data-name="Ellipse 9-6"><ellipse class="cls-15" cx="316.83" cy="431.73" rx="99.34" ry="80.47"/><ellipse class="cls-16" cx="316.83" cy="431.73" rx="98.97" ry="80.1"/></g><g id="Ellipse_10-6" data-name="Ellipse 10-6"><ellipse class="cls-15" cx="269.21" cy="548.4" rx="94.05" ry="76.19"/><ellipse class="cls-16" cx="269.21" cy="548.4" rx="93.68" ry="75.81"/></g><g id="Ellipse_11-6" data-name="Ellipse 11-6"><ellipse class="cls-15" cx="423.81" cy="527.92" rx="87.58" ry="70.95"/><ellipse class="cls-16" cx="423.81" cy="527.92" rx="87.21" ry="70.58"/></g><g id="Ellipse_12-6" data-name="Ellipse 12-6"><ellipse class="cls-15" cx="423.81" cy="527.92" rx="87.58" ry="70.95"/><ellipse class="cls-16" cx="423.81" cy="527.92" rx="87.21" ry="70.58"/></g><g id="Ellipse_13-6" data-name="Ellipse 13-6"><ellipse class="cls-15" cx="473.18" cy="548.87" rx="87.58" ry="70.95"/><ellipse class="cls-16" cx="473.18" cy="548.87" rx="87.21" ry="70.58"/></g><g id="Ellipse_14-6" data-name="Ellipse 14-6"><ellipse class="cls-15" cx="336.81" cy="614.58" rx="87.58" ry="70.95"/><ellipse class="cls-16" cx="336.81" cy="614.58" rx="87.21" ry="70.58"/></g><g id="Ellipse_15-6" data-name="Ellipse 15-6"><ellipse class="cls-15" cx="136.96" cy="642.2" rx="99.34" ry="80.47"/><ellipse class="cls-16" cx="136.96" cy="642.2" rx="98.97" ry="80.1"/></g><g id="Ellipse_16-6" data-name="Ellipse 16-6"><ellipse class="cls-15" cx="451.43" cy="628.39" rx="94.05" ry="76.19"/><ellipse class="cls-16" cx="451.43" cy="628.39" rx="93.68" ry="75.81"/></g><g id="Ellipse_17-6" data-name="Ellipse 17-6"><ellipse class="cls-15" cx="350.92" cy="686.01" rx="87.58" ry="70.95"/><ellipse class="cls-16" cx="350.92" cy="686.01" rx="87.21" ry="70.58"/></g><g id="Ellipse_18-6" data-name="Ellipse 18-6"><ellipse class="cls-15" cx="262.75" cy="686.01" rx="87.58" ry="70.95"/><ellipse class="cls-16" cx="262.75" cy="686.01" rx="87.21" ry="70.58"/></g><g id="Ellipse_19-6" data-name="Ellipse 19-6"><ellipse class="cls-15" cx="164" cy="452.69" rx="99.34" ry="80.47"/><ellipse class="cls-16" cx="164" cy="452.69" rx="98.97" ry="80.1"/></g><g id="Ellipse_20-6" data-name="Ellipse 20-6"><ellipse class="cls-15" cx="94.05" cy="548.4" rx="94.05" ry="76.19"/><ellipse class="cls-16" cx="94.05" cy="548.4" rx="93.68" ry="75.81"/></g><g id="Ellipse_21-6" data-name="Ellipse 21-6"><ellipse class="cls-15" cx="424.98" cy="443.16" rx="87.58" ry="70.95"/><ellipse class="cls-16" cx="424.98" cy="443.16" rx="87.21" ry="70.58"/></g><g id="Ellipse_22-6" data-name="Ellipse 22-6"><ellipse class="cls-15" cx="188.69" cy="599.35" rx="87.58" ry="70.95"/><ellipse class="cls-16" cx="188.69" cy="599.35" rx="87.21" ry="70.58"/></g></g><g id="Group_17" data-name="Group 17" class="cls-11"><g id="Ellipse_9-7" data-name="Ellipse 9-7"><circle class="cls-12" cx="1139.57" cy="363.12" r="45.41"/><circle class="cls-13" cx="1139.57" cy="363.12" r="45.04"/></g><g id="Ellipse_10-7" data-name="Ellipse 10-7"><circle class="cls-12" cx="1117.8" cy="428.95" r="43"/><circle class="cls-13" cx="1117.8" cy="428.95" r="42.62"/></g><g id="Ellipse_11-7" data-name="Ellipse 11-7"><circle class="cls-12" cx="1188.47" cy="417.4" r="40.04"/><circle class="cls-13" cx="1188.47" cy="417.4" r="39.67"/></g><g id="Ellipse_12-7" data-name="Ellipse 12-7"><circle class="cls-12" cx="1188.47" cy="417.4" r="40.04"/><circle class="cls-13" cx="1188.47" cy="417.4" r="39.67"/></g><g id="Ellipse_13-7" data-name="Ellipse 13-7"><circle class="cls-12" cx="1211.05" cy="429.22" r="40.04"/><circle class="cls-13" cx="1211.05" cy="429.22" r="39.67"/></g><g id="Ellipse_14-7" data-name="Ellipse 14-7"><circle class="cls-12" cx="1148.7" cy="466.31" r="40.04"/><circle class="cls-13" cx="1148.7" cy="466.31" r="39.67"/></g><g id="Ellipse_15-7" data-name="Ellipse 15-7"><circle class="cls-12" cx="1057.34" cy="481.89" r="45.41"/><circle class="cls-13" cx="1057.34" cy="481.89" r="45.04"/></g><g id="Ellipse_16-7" data-name="Ellipse 16-7"><circle class="cls-12" cx="1201.11" cy="474.1" r="43"/><circle class="cls-13" cx="1201.11" cy="474.1" r="42.62"/></g><g id="Ellipse_17-7" data-name="Ellipse 17-7"><circle class="cls-12" cx="1155.15" cy="506.62" r="40.04"/><circle class="cls-13" cx="1155.15" cy="506.62" r="39.67"/></g><g id="Ellipse_18-7" data-name="Ellipse 18-7"><circle class="cls-12" cx="1114.84" cy="506.62" r="40.04"/><circle class="cls-13" cx="1114.84" cy="506.62" r="39.67"/></g><g id="Ellipse_19-7" data-name="Ellipse 19-7"><circle class="cls-12" cx="1069.7" cy="374.94" r="45.41"/><circle class="cls-13" cx="1069.7" cy="374.94" r="45.04"/></g><g id="Ellipse_20-7" data-name="Ellipse 20-7"><circle class="cls-12" cx="1037.72" cy="428.95" r="43"/><circle class="cls-13" cx="1037.72" cy="428.95" r="42.62"/></g><g id="Ellipse_21-7" data-name="Ellipse 21-7"><circle class="cls-12" cx="1189.01" cy="369.57" r="40.04"/><circle class="cls-13" cx="1189.01" cy="369.57" r="39.67"/></g><g id="Ellipse_22-7" data-name="Ellipse 22-7"><circle class="cls-12" cx="1080.98" cy="457.71" r="40.04"/><circle class="cls-13" cx="1080.98" cy="457.71" r="39.67"/></g></g><g id="Group_15" data-name="Group 15" class="cls-5"><g id="Ellipse_9-8" data-name="Ellipse 9-8"><circle class="cls-6" cx="1320.26" cy="221.87" r="63.02"/><circle class="cls-7" cx="1320.26" cy="221.87" r="62.65"/></g><g id="Ellipse_10-8" data-name="Ellipse 10-8"><circle class="cls-6" cx="1290.05" cy="313.23" r="59.66"/><circle class="cls-7" cx="1290.05" cy="313.23" r="59.29"/></g><g id="Ellipse_11-8" data-name="Ellipse 11-8"><circle class="cls-6" cx="1388.12" cy="297.19" r="55.56"/><circle class="cls-7" cx="1388.12" cy="297.19" r="55.19"/></g><g id="Ellipse_12-8" data-name="Ellipse 12-8"><circle class="cls-6" cx="1388.12" cy="297.19" r="55.56"/><circle class="cls-7" cx="1388.12" cy="297.19" r="55.19"/></g><g id="Ellipse_13-8" data-name="Ellipse 13-8"><circle class="cls-6" cx="1419.44" cy="313.6" r="55.56"/><circle class="cls-7" cx="1419.44" cy="313.6" r="55.19"/></g><g id="Ellipse_14-8" data-name="Ellipse 14-8"><circle class="cls-6" cx="1332.93" cy="365.06" r="55.56"/><circle class="cls-7" cx="1332.93" cy="365.06" r="55.19"/></g><g id="Ellipse_15-8" data-name="Ellipse 15-8"><circle class="cls-6" cx="1206.15" cy="386.69" r="63.02"/><circle class="cls-7" cx="1206.15" cy="386.69" r="62.65"/></g><g id="Ellipse_16-8" data-name="Ellipse 16-8"><circle class="cls-6" cx="1405.65" cy="375.87" r="59.66"/><circle class="cls-7" cx="1405.65" cy="375.87" r="59.29"/></g><g id="Ellipse_17-8" data-name="Ellipse 17-8"><circle class="cls-6" cx="1341.88" cy="420.99" r="55.56"/><circle class="cls-7" cx="1341.88" cy="420.99" r="55.19"/></g><g id="Ellipse_18-8" data-name="Ellipse 18-8"><circle class="cls-6" cx="1285.95" cy="420.99" r="55.56"/><circle class="cls-7" cx="1285.95" cy="420.99" r="55.19"/></g><g id="Ellipse_19-8" data-name="Ellipse 19-8"><circle class="cls-6" cx="1223.3" cy="238.28" r="63.02"/><circle class="cls-7" cx="1223.3" cy="238.28" r="62.65"/></g><g id="Ellipse_20-8" data-name="Ellipse 20-8"><circle class="cls-6" cx="1178.93" cy="313.23" r="59.66"/><circle class="cls-7" cx="1178.93" cy="313.23" r="59.29"/></g><g id="Ellipse_21-8" data-name="Ellipse 21-8"><circle class="cls-6" cx="1388.87" cy="230.82" r="55.56"/><circle class="cls-7" cx="1388.87" cy="230.82" r="55.19"/></g><g id="Ellipse_22-8" data-name="Ellipse 22-8"><circle class="cls-6" cx="1238.97" cy="353.13" r="55.56"/><circle class="cls-7" cx="1238.97" cy="353.13" r="55.19"/></g></g><g id="Group_18" data-name="Group 18" class="cls-5"><g id="Ellipse_9-9" data-name="Ellipse 9-9"><ellipse class="cls-9" cx="511.09" cy="341.56" rx="63.02" ry="54.44"/><ellipse class="cls-10" cx="511.09" cy="341.56" rx="62.65" ry="54.07"/></g><g id="Ellipse_10-9" data-name="Ellipse 10-9"><ellipse class="cls-9" cx="480.88" cy="420.48" rx="59.66" ry="51.54"/><ellipse class="cls-10" cx="480.88" cy="420.48" rx="59.29" ry="51.17"/></g><g id="Ellipse_11-9" data-name="Ellipse 11-9"><ellipse class="cls-9" cx="578.95" cy="406.63" rx="55.56" ry="48"/><ellipse class="cls-10" cx="578.95" cy="406.63" rx="55.19" ry="47.62"/></g><g id="Ellipse_12-9" data-name="Ellipse 12-9"><ellipse class="cls-9" cx="578.95" cy="406.63" rx="55.56" ry="48"/><ellipse class="cls-10" cx="578.95" cy="406.63" rx="55.19" ry="47.62"/></g><g id="Ellipse_13-9" data-name="Ellipse 13-9"><ellipse class="cls-9" cx="610.27" cy="420.81" rx="55.56" ry="48"/><ellipse class="cls-10" cx="610.27" cy="420.81" rx="55.19" ry="47.62"/></g><g id="Ellipse_14-9" data-name="Ellipse 14-9"><ellipse class="cls-9" cx="523.76" cy="465.26" rx="55.56" ry="48"/><ellipse class="cls-10" cx="523.76" cy="465.26" rx="55.19" ry="47.62"/></g><g id="Ellipse_15-9" data-name="Ellipse 15-9"><ellipse class="cls-9" cx="396.98" cy="483.94" rx="63.02" ry="54.44"/><ellipse class="cls-10" cx="396.98" cy="483.94" rx="62.65" ry="54.07"/></g><g id="Ellipse_16-9" data-name="Ellipse 16-9"><ellipse class="cls-9" cx="596.48" cy="474.6" rx="59.66" ry="51.54"/><ellipse class="cls-10" cx="596.48" cy="474.6" rx="59.29" ry="51.17"/></g><g id="Ellipse_17-9" data-name="Ellipse 17-9"><ellipse class="cls-9" cx="532.71" cy="513.58" rx="55.56" ry="48"/><ellipse class="cls-10" cx="532.71" cy="513.58" rx="55.19" ry="47.62"/></g><g id="Ellipse_18-9" data-name="Ellipse 18-9"><ellipse class="cls-9" cx="476.78" cy="513.58" rx="55.56" ry="48"/><ellipse class="cls-10" cx="476.78" cy="513.58" rx="55.19" ry="47.62"/></g><g id="Ellipse_19-9" data-name="Ellipse 19-9"><ellipse class="cls-9" cx="414.13" cy="355.74" rx="63.02" ry="54.44"/><ellipse class="cls-10" cx="414.13" cy="355.74" rx="62.65" ry="54.07"/></g><g id="Ellipse_20-9" data-name="Ellipse 20-9"><ellipse class="cls-9" cx="369.76" cy="420.48" rx="59.66" ry="51.54"/><ellipse class="cls-10" cx="369.76" cy="420.48" rx="59.29" ry="51.17"/></g><g id="Ellipse_21-9" data-name="Ellipse 21-9"><ellipse class="cls-9" cx="579.7" cy="349.29" rx="55.56" ry="48"/><ellipse class="cls-10" cx="579.7" cy="349.29" rx="55.19" ry="47.62"/></g><g id="Ellipse_22-9" data-name="Ellipse 22-9"><ellipse class="cls-9" cx="429.8" cy="454.95" rx="55.56" ry="48"/><ellipse class="cls-10" cx="429.8" cy="454.95" rx="55.19" ry="47.62"/></g></g><g id="Group_26" data-name="Group 26" class="cls-17"><g id="Ellipse_9-10" data-name="Ellipse 9-10"><ellipse class="cls-6" cx="832.76" cy="333.84" rx="94.99" ry="81.48"/><ellipse class="cls-7" cx="832.76" cy="333.84" rx="94.62" ry="81.11"/></g><g id="Ellipse_10-10" data-name="Ellipse 10-10"><ellipse class="cls-6" cx="787.23" cy="451.96" rx="89.93" ry="77.14"/><ellipse class="cls-7" cx="787.23" cy="451.96" rx="89.56" ry="76.77"/></g><g id="Ellipse_11-10" data-name="Ellipse 11-10"><ellipse class="cls-6" cx="935.05" cy="431.23" rx="83.75" ry="71.84"/><ellipse class="cls-7" cx="935.05" cy="431.23" rx="83.38" ry="71.46"/></g><g id="Ellipse_12-10" data-name="Ellipse 12-10"><ellipse class="cls-6" cx="935.05" cy="431.23" rx="83.75" ry="71.84"/><ellipse class="cls-7" cx="935.05" cy="431.23" rx="83.38" ry="71.46"/></g><g id="Ellipse_13-10" data-name="Ellipse 13-10"><ellipse class="cls-6" cx="982.27" cy="452.44" rx="83.75" ry="71.84"/><ellipse class="cls-7" cx="982.27" cy="452.44" rx="83.38" ry="71.46"/></g><g id="Ellipse_14-10" data-name="Ellipse 14-10"><ellipse class="cls-6" cx="851.87" cy="518.97" rx="83.75" ry="71.84"/><ellipse class="cls-7" cx="851.87" cy="518.97" rx="83.38" ry="71.46"/></g><g id="Ellipse_15-10" data-name="Ellipse 15-10"><ellipse class="cls-6" cx="660.76" cy="546.93" rx="94.99" ry="81.48"/><ellipse class="cls-7" cx="660.76" cy="546.93" rx="94.62" ry="81.11"/></g><g id="Ellipse_16-10" data-name="Ellipse 16-10"><ellipse class="cls-6" cx="961.47" cy="532.95" rx="89.93" ry="77.14"/><ellipse class="cls-7" cx="961.47" cy="532.95" rx="89.56" ry="76.77"/></g><g id="Ellipse_17-10" data-name="Ellipse 17-10"><ellipse class="cls-6" cx="865.36" cy="591.29" rx="83.75" ry="71.84"/><ellipse class="cls-7" cx="865.36" cy="591.29" rx="83.38" ry="71.46"/></g><g id="Ellipse_18-10" data-name="Ellipse 18-10"><ellipse class="cls-6" cx="781.04" cy="591.29" rx="83.75" ry="71.84"/><ellipse class="cls-7" cx="781.04" cy="591.29" rx="83.38" ry="71.46"/></g><g id="Ellipse_19-10" data-name="Ellipse 19-10"><ellipse class="cls-6" cx="686.61" cy="355.05" rx="94.99" ry="81.48"/><ellipse class="cls-7" cx="686.61" cy="355.05" rx="94.62" ry="81.11"/></g><g id="Ellipse_20-10" data-name="Ellipse 20-10"><ellipse class="cls-6" cx="619.73" cy="451.96" rx="89.93" ry="77.14"/><ellipse class="cls-7" cx="619.73" cy="451.96" rx="89.56" ry="76.77"/></g><g id="Ellipse_21-10" data-name="Ellipse 21-10"><ellipse class="cls-6" cx="936.18" cy="345.41" rx="83.75" ry="71.84"/><ellipse class="cls-7" cx="936.18" cy="345.41" rx="83.38" ry="71.46"/></g><g id="Ellipse_22-10" data-name="Ellipse 22-10"><ellipse class="cls-6" cx="710.22" cy="503.54" rx="83.75" ry="71.84"/><ellipse class="cls-7" cx="710.22" cy="503.54" rx="83.38" ry="71.46"/></g></g><g id="Group_19" data-name="Group 19"><g id="Ellipse_9-5" data-name="Ellipse 9-5"><circle class="cls-18" cx="911.57" cy="63.02" r="63.02"/><circle class="cls-18" cx="911.57" cy="63.02" r="62.65"/></g><g id="Ellipse_10-5" data-name="Ellipse 10-5"><circle class="cls-18" cx="881.37" cy="154.38" r="59.66"/><circle class="cls-18" cx="881.37" cy="154.38" r="59.29"/></g><g id="Ellipse_11-5" data-name="Ellipse 11-5"><circle class="cls-18" cx="979.44" cy="138.34" r="55.56"/><circle class="cls-18" cx="979.44" cy="138.34" r="55.19"/></g><g id="Ellipse_12-5" data-name="Ellipse 12-5"><circle class="cls-18" cx="979.44" cy="138.34" r="55.56"/><circle class="cls-18" cx="979.44" cy="138.34" r="55.19"/></g><g id="Ellipse_13-5" data-name="Ellipse 13-5"><circle class="cls-18" cx="1010.76" cy="154.75" r="55.56"/><circle class="cls-18" cx="1010.76" cy="154.75" r="55.19"/></g><g id="Ellipse_14-5" data-name="Ellipse 14-5"><circle class="cls-18" cx="924.25" cy="206.21" r="55.56"/><circle class="cls-18" cx="924.25" cy="206.21" r="55.19"/></g><g id="Ellipse_15-5" data-name="Ellipse 15-5"><circle class="cls-18" cx="797.46" cy="227.84" r="63.02"/><circle class="cls-18" cx="797.46" cy="227.84" r="62.65"/></g><g id="Ellipse_16-5" data-name="Ellipse 16-5"><circle class="cls-18" cx="996.96" cy="217.02" r="59.66"/><circle class="cls-18" cx="996.96" cy="217.02" r="59.29"/></g><g id="Ellipse_17-5" data-name="Ellipse 17-5"><circle class="cls-18" cx="933.2" cy="262.14" r="55.56"/><circle class="cls-18" cx="933.2" cy="262.14" r="55.19"/></g><g id="Ellipse_18-5" data-name="Ellipse 18-5"><circle class="cls-18" cx="877.26" cy="262.14" r="55.56"/><circle class="cls-18" cx="877.26" cy="262.14" r="55.19"/></g><g id="Ellipse_19-5" data-name="Ellipse 19-5"><circle class="cls-18" cx="814.62" cy="79.43" r="63.02"/><circle class="cls-18" cx="814.62" cy="79.43" r="62.65"/></g><g id="Ellipse_20-5" data-name="Ellipse 20-5"><circle class="cls-18" cx="770.24" cy="154.38" r="59.66"/><circle class="cls-18" cx="770.24" cy="154.38" r="59.29"/></g><g id="Ellipse_21-5" data-name="Ellipse 21-5"><circle class="cls-18" cx="980.18" cy="71.97" r="55.56"/><circle class="cls-18" cx="980.18" cy="71.97" r="55.19"/></g><g id="Ellipse_22-5" data-name="Ellipse 22-5"><circle class="cls-18" cx="830.28" cy="194.28" r="55.56"/><circle class="cls-18" cx="830.28" cy="194.28" r="55.19"/></g></g></g></g></g></g></svg>