<?xml version="1.0" encoding="utf-8"?>
<!-- Generator: Adobe Illustrator 21.1.0, SVG Export Plug-In . SVG Version: 6.00 Build 0)  -->
<svg version="1.1" id="Layer_1" xmlns="http://www.w3.org/2000/svg" xmlns:xlink="http://www.w3.org/1999/xlink" x="0px" y="0px"
	 viewBox="0 0 193.2 279.1" style="enable-background:new 0 0 193.2 279.1;" xml:space="preserve">
<style type="text/css">
	.st0{fill:#F267A4;}
	.st1{fill:#1AA8C4;}
	.st2{fill:#3566AC;}
	.st3{fill:#FFFFFF;}
	.st4{fill:#4E5660;}
</style>
<title>default</title>
<g id="Symbol_9_1">
	<g id="tjbot_play">
		<path id="Path_155" class="st0" d="M19.2,104.7h149.4c6.8,0,12.3,6.1,12.3,13.6v76.9c0,7.5-5.5,13.6-12.3,13.6H19.2
			c-6.8,0-12.3-6.1-12.3-13.6v-76.9C6.9,110.8,12.5,104.7,19.2,104.7z"/>
		<path id="Path_154" class="st1" d="M12.4,15.2h167.1c6.8,0,12.4,5.5,12.4,12.4l0,0V147c0,6.8-5.5,12.4-12.4,12.4H12.4
			C5.5,159.4,0,153.8,0,147V27.6C0,20.7,5.5,15.2,12.4,15.2z"/>
		<path id="Path_147" class="st2" d="M175.9,160.3H16c-6.1-0.4-10.9-1.2-12.3-4c-5.9-11.2,26.5-41.5,94.4-91.6
			c20.2-14.9,43.6-31.6,70.2-50.2h13.4c8.8,0,11.5,8.5,11.5,17.4v115.3C193.2,156.2,184.7,160.3,175.9,160.3L175.9,160.3z"/>
		<path id="Path_148" class="st1" d="M173,229.4h-17.1v2.7c0,7.4-6,13.5-13.4,13.5c-5.3,0-10.1-3.1-12.3-7.9
			c-1.4,2.4-2.1,5.1-2.1,7.8v17.7c0,8.8,7.2,16,16,16h29c8.8,0,16-7.2,16-16l0,0v-17.7C189.1,236.6,181.9,229.4,173,229.4L173,229.4
			z"/>
		<path id="Path_149" class="st1" d="M153.9,229.4h11.8v-17c0.1-7.4-5.9-13.5-13.3-13.6c-7.2-0.1-13.2,5.5-13.6,12.7
			c0,0.3,0,0.6,0,0.9V232c0,1.9,0.4,3.8,1.2,5.5C142.8,232.5,148.1,229.4,153.9,229.4L153.9,229.4z"/>
		<path id="Path_150" class="st2" d="M143.6,229.5c-5.8,0-11.1,3.1-13.9,8.1c2.2,4.8,6.9,8,12.2,8l0,0c7.4,0,13.5-6,13.5-13.5v-2.7
			L143.6,229.5z"/>
		<ellipse id="Ellipse_7" class="st3" cx="48.1" cy="143.4" rx="10.7" ry="5.9"/>
		<path id="Path_151" class="st1" d="M65.8,237.4c-3,6.8-10.9,9.9-17.7,6.9c-4.9-2.2-8.1-7-8-12.4v-2.7H22.9c-8.8,0-16,7.2-16,16
			l0,0V263c0,8.8,7.2,16,16,16h29c8.8,0,16-7.2,16-16l0,0v-17.7C67.9,242.5,67.2,239.8,65.8,237.4L65.8,237.4z"/>
		<path id="Path_152" class="st1" d="M56.8,237.4c0.8-1.7,1.2-3.6,1.2-5.5v-19.6c0.1-7.4-5.9-13.5-13.3-13.6
			c-7.2-0.1-13.2,5.5-13.6,12.7c0,0.3,0,0.6,0,0.9v17h11.8C48.6,229.4,53.9,232.4,56.8,237.4z"/>
		<path id="Path_153" class="st2" d="M51.8,229.4H40v2.7c0,7.4,6,13.5,13.4,13.5c5.3,0,10.1-3.1,12.3-7.9
			C62.9,232.6,57.6,229.4,51.8,229.4L51.8,229.4z"/>
		<ellipse id="Ellipse_8" class="st3" cx="146.4" cy="142.1" rx="10.7" ry="5.9"/>
		<path id="Rectangle_30" class="st4" d="M51.9,120.7h4.7c4.6,0,8.4,3.7,8.4,8.4v4.7c0,4.6-3.7,8.4-8.4,8.4h-4.7
			c-4.6,0-8.4-3.7-8.4-8.4V129C43.5,124.4,47.2,120.7,51.9,120.7z"/>
		<path id="Rectangle_31" class="st4" d="M136.5,120.7h4.7c4.6,0,8.4,3.7,8.4,8.4v4.7c0,4.6-3.7,8.4-8.4,8.4h-4.7
			c-4.6,0-8.4-3.7-8.4-8.4V129C128.1,124.4,131.8,120.7,136.5,120.7z"/>
		<path id="Rectangle_27" class="st1" d="M13.6,173.5h164.7c7.5,0,13.6,6.1,13.6,13.6v8.1c0,7.5-6.1,13.6-13.6,13.6H13.6
			c-7.5,0-13.6-6.1-13.6-13.6v-8.1C0,179.6,6.1,173.5,13.6,173.5z"/>
	</g>
</g>
</svg>
